Coordinates
version=1
nRows=29
nColumns=24
inDegrees=yes

Units are S.I. units (second, meters, Newtons, ...)
Angles are in degrees.

endheader
time	pelvis_tilt	pelvis_list	pelvis_rotation	pelvis_tx	pelvis_ty	pelvis_tz	hip_flexion_r	hip_adduction_r	hip_rotation_r	knee_angle_r	ankle_angle_r	subtalar_angle_r	mtp_angle_r	hip_flexion_l	hip_adduction_l	hip_rotation_l	knee_angle_l	ankle_angle_l	subtalar_angle_l	mtp_angle_l	lumbar_extension	lumbar_bending	lumbar_rotation
      1.39466667	     -1.89118012	     -0.31991742	     -3.95625472	      0.93151147	      0.95642168	      0.30611085	    -22.22683834	      0.40269003	     -1.20248634	     -4.76417355	     16.58160676	      0.92482670	      5.59617235	     26.94034193	     -2.06614257	      1.31055755	      6.00977801	      1.67296193	     -3.25101806	      2.68282204	    -10.90166647	      5.23490920	     10.25290838
      1.39883333	     -1.93845575	     -0.13114576	     -3.97351735	      0.93770408	      0.95560316	      0.30560300	    -22.34069155	      0.13574319	     -1.34736845	     -5.16172868	     16.44895532	      1.03084836	      5.95059477	     27.04676859	     -1.83789570	      1.57851366	      5.45296107	      1.26877303	     -3.77074387	      2.83370674	    -10.77850147	      4.96224631	     10.24336813
      1.40300000	     -1.98033891	      0.07859458	     -3.99541363	      0.94392798	      0.95483539	      0.30508088	    -22.43413974	     -0.15677025	     -1.51158113	     -5.60996807	     16.28707920	      1.13388744	      6.39438552	     27.13771490	     -1.58588814	      1.86619906	      4.89016340	      0.80413498	     -4.37156675	      3.02621854	    -10.67750726	      4.66732875	     10.22671330
      1.40716667	     -2.03580710	      0.30380028	     -4.01090992	      0.95019848	      0.95409119	      0.30454661	    -22.51414865	     -0.46119502	     -1.67474801	     -6.05344014	     16.10060485	      1.22104972	      6.89029681	     27.25259342	     -1.31087305	      2.13871660	      4.28810116	      0.24333555	     -5.01776132	      3.23238802	    -10.54586584	      4.35074539	     10.21005671
      1.41133333	     -2.11764969	      0.54421072	     -4.01806304	      0.95651790	      0.95335870	      0.30399302	    -22.57717850	     -0.77511172	     -1.80921632	     -6.46978180	     15.89814209	      1.29143998	      7.28601220	     27.41418693	     -1.01266911	      2.32562622	      3.63996897	     -0.41526940	     -5.59993359	      3.38469058	    -10.35798454	      4.02757900	     10.17820148
      1.41550000	     -2.17901840	      0.79707816	     -4.02988633	      0.96282591	      0.95269291	      0.30341337	    -22.60396986	     -1.10952100	     -2.00709710	     -7.00322338	     15.63756349	      1.35012009	      7.81333466	     27.54114561	     -0.69795687	      2.59370517	      3.00375127	     -1.09597576	     -6.31339276	      3.58474847	    -10.22577074	      3.67791860	     10.15865811
      1.41966667	     -2.26915830	      1.06630311	     -4.03734389	      0.96919598	      0.95204272	      0.30283459	    -22.62575502	     -1.45349303	     -2.14926902	     -7.47708274	     15.37910500	      1.38828151	      8.30314313	     27.72481580	     -0.36254284	      2.76229177	      2.30973128	     -1.89295784	     -6.96810659	      3.75022486	    -10.02750421	      3.32334437	     10.11934137
      1.42383333	     -2.32246359	      1.35797133	     -4.02579165	      0.97559718	      0.95147848	      0.30222175	    -22.67274954	     -1.81643439	     -2.34624298	     -7.96691597	     14.91732235	      1.27442292	     13.94093217	     27.87711577	      0.00952029	      2.92241228	      1.59458119	     -2.66964163	     -7.56118579	      5.70261563	     -9.89547808	      2.92799149	     10.05549919
      1.42800000	     -2.44533001	      1.64499309	     -4.03617971	      0.98198515	      0.95088593	      0.30162019	    -22.60978605	     -2.17902390	     -2.48713419	     -8.53327846	     14.59640141	      1.27889884	     14.00900974	     28.11320721	      0.36717195	      3.04870141	      0.85467582	     -3.53326746	     -8.21206054	      5.68649854	     -9.66888845	      2.54800209	     10.04883890
      1.43216667	     -2.54046237	      1.95503664	     -4.02929980	      0.98841370	      0.95036966	      0.30097666	    -22.57018676	     -2.56186792	     -2.66444227	     -9.11132798	     14.22004668	      1.26940539	     14.14055575	     28.33264570	      0.76216342	      3.19424242	      0.07833666	     -4.38751891	     -8.86366503	      5.67646935	     -9.47512061	      2.14191214	     10.00069827
      1.43633333	     -2.62640164	      2.28455941	     -4.00285347	      0.99484860	      0.94990698	      0.30028811	    -22.52340007	     -2.96026285	     -2.88063696	     -9.72125436	     13.79322871	      1.25211963	     14.44637077	     28.54076736	      1.19203069	      3.39837255	     -0.70223014	     -5.23311699	     -9.59391266	      5.68194631	     -9.29656107	      1.70415030	      9.95949017
      1.44050000	     -2.65314705	      2.65898478	     -4.02017902	      1.00134142	      0.94959583	      0.29965506	    -22.52670608	     -3.42463514	     -3.06291998	    -10.34108720	     13.32534604	      1.20317935	     16.01065289	     28.67482725	      1.65137739	      3.47204064	     -1.46536107	     -6.13711726	    -10.29729228	      5.77448293	     -9.18887942	      1.21777275	      9.86735515
      1.44466667	     -2.82976451	      2.96875977	     -3.95172110	      1.00781747	      0.94910443	      0.29889639	    -22.36876858	     -3.77961420	     -3.25218994	    -10.97801160	     12.80147507	      1.10535136	     16.51562959	     29.03636326	      2.08004046	      3.63558716	     -2.37564335	     -6.90740320	    -10.85636176	      5.79012337	     -8.88797041	      0.81404098	      9.86754460
      1.44883333	     -2.96111754	      3.30750174	     -3.95864657	      1.01426657	      0.94875788	      0.29823809	    -22.20680244	     -4.19426398	     -3.35605002	    -11.69244232	     12.26755018	      0.95511094	     16.75382997	     29.34976227	      2.50246025	      3.63172339	     -3.29718011	     -7.65631066	    -11.28401154	      5.78496864	     -8.65226981	      0.39046782	      9.81511682
      1.45300000	     -3.06947271	      3.66748100	     -3.92488725	      1.02077797	      0.94846810	      0.29750997	    -22.07662184	     -4.61970119	     -3.52336591	    -12.40019856	     11.67709763	      0.83268489	     17.08186809	     29.63364661	      2.97336725	      3.71100726	     -4.21740121	     -8.37676025	    -11.83515970	      5.77489623	     -8.43730016	     -0.07651883	      9.77106408
      1.45716667	     -3.10729244	      4.06829356	     -3.88627975	      1.02732534	      0.94830013	      0.29675205	    -22.01312083	     -5.09443410	     -3.74314972	    -13.11406760	     11.00191198	      0.62664074	     22.05667806	     29.85498627	      3.49660006	      3.77063341	     -5.18011407	     -8.92689220	    -12.30497886	      5.64402432	     -8.31588148	     -0.59779475	      9.68609340
      1.46133333	     -3.19853761	      4.43204029	     -3.84367639	      1.03388832	      0.94812871	      0.29601467	    -21.89888915	     -5.51704129	     -3.86787375	    -13.80513175	     10.23890224	      0.45150147	     22.08204276	     30.16366068	      3.97646177	      3.75710489	     -6.22758326	     -9.35599786	    -12.57974274	      5.63030701	     -8.11980839	     -1.06789538	      9.64872682
      1.46550000	     -3.31782522	      4.77543714	     -3.80453224	      1.04037500	      0.94794899	      0.29522513	    -21.68770810	     -5.92826567	     -3.99167273	    -14.62935138	      9.55072131	      0.26455874	     22.21385764	     30.49996947	      4.44388061	      3.82746873	     -7.27284727	     -9.84631519	    -13.05517358	      5.59103761	     -7.89511456	     -1.49669795	      9.64789919
      1.46966667	     -3.39116284	      5.14224800	     -3.76785825	      1.04691297	      0.94786678	      0.29443110	    -21.52984366	     -6.36684364	     -4.10872312	    -15.43531484	      8.79669125	      0.09138138	     22.54295535	     30.78869087	      4.94148982	      3.89625081	     -8.34552344	    -10.16937799	    -13.52375018	      5.49825796	     -7.72360130	     -1.96918655	      9.64503022
      1.47383333	     -3.40655950	      5.52044471	     -3.70995267	      1.05349678	      0.94788458	      0.29362593	    -21.44065126	     -6.80975412	     -4.25671955	    -16.22742250	      7.96093887	     -0.12462710	     22.63888008	     31.03262949	      5.46077768	      3.89756568	     -9.46769131	    -10.32146955	    -13.73942625	      5.46539981	     -7.62564416	     -2.45587866	      9.58389299
      1.47800000	     -3.43974809	      5.88532471	     -3.67337728	      1.06005250	      0.94792126	      0.29282308	    -21.29265802	     -7.24981870	     -4.35891541	    -17.08075312	      7.10886737	     -0.34423640	     22.76601667	     31.28857843	      5.96012334	      3.90864598	    -10.58651562	    -10.42781004	    -14.00832585	      5.42002259	     -7.50141107	     -2.92598586	      9.55828104
      1.48216667	     -3.46265646	      6.23545572	     -3.63588018	      1.06659033	      0.94801126	      0.29198091	    -21.12880723	     -7.68134097	     -4.45930693	    -17.96485407	      6.17292443	     -0.63798895	     27.96067298	     31.51118428	      6.45845550	      3.98907038	    -11.67170347	    -10.50084997	    -14.37096209	      3.59325210	     -7.38936614	     -3.37619150	      9.66789156
      1.48633333	     -3.46012799	      6.58563591	     -3.58778454	      1.07314941	      0.94813617	      0.29112106	    -20.98251483	     -8.11150891	     -4.56892828	    -18.87622036	      5.25175242	     -0.84738220	     27.97340859	     31.72831284	      6.96380299	      4.02287553	    -12.82574218	    -10.38461186	    -14.60132702	      3.58570651	     -7.30891656	     -3.81844080	      9.59463089
      1.49050000	     -3.45859685	      6.92600717	     -3.54890044	      1.07969872	      0.94830027	      0.29027383	    -20.80867015	     -8.53444876	     -4.64157615	    -19.82326820	      4.30136724	     -1.07759940	     28.00943751	     31.92560218	      7.45594426	      4.05393218	    -13.93748628	    -10.24471137	    -14.83767402	      3.56368136	     -7.23054564	     -4.24146143	      9.58268234
      1.49466667	     -3.44192760	      7.25100422	     -3.51660253	      1.08619872	      0.94851664	      0.28941980	    -20.61950737	     -8.94742591	     -4.68977917	    -20.81346143	      3.32883520	     -1.31327926	     28.06254308	     32.09083952	      7.93702932	      4.10574620	    -15.02558560	    -10.03584494	    -15.06683900	      3.52766241	     -7.17298021	     -4.65671389	      9.60271160
      1.49883333	     -3.42020473	      7.56589707	     -3.49951454	      1.09267028	      0.94876887	      0.28857664	    -20.40134143	     -9.35787068	     -4.70866467	    -21.84871241	      2.32873305	     -1.56788383	     28.14394875	     32.23261215	      8.40234898	      4.13717959	    -16.07849837	     -9.77556558	    -15.29192195	      3.46663273	     -7.12282780	     -5.06018015	      9.65825363
      1.50300000	     -3.42228042	      7.83619518	     -3.48714049	      1.09907000	      0.94901436	      0.28772765	    -20.11808247	     -9.72338966	     -4.68127435	    -22.93389454	      1.29201633	     -1.91393848	     28.40013313	     32.39779122	      8.81862878	      4.14859182	    -17.13135132	     -9.45423517	    -15.41940751	      3.26136729	     -7.03921849	     -5.40212833	      9.85852563
      1.50716667	     -3.32691802	      8.13069670	     -3.47008518	      1.10549308	      0.94939406	      0.28684704	    -19.92967876	    -10.12730666	     -4.71737951	    -24.03772922	      0.28891011	     -2.07159481	     28.45402839	     32.42352503	      9.28312057	      4.19738484	    -18.12709365	     -9.04299847	    -15.68640723	      3.21459984	     -7.07131273	     -5.75346929	      9.81798901
      1.51133333	     -3.32426946	      8.38175682	     -3.49077580	      1.11182016	      0.94969949	      0.28606230	    -19.58958940	    -10.48150790	     -4.60292291	    -25.18612204	     -0.78890247	     -2.43748024	     28.83852691	     32.54771918	      9.66261873	      4.16732769	    -19.11021057	     -8.60525127	    -15.78728480	      2.83678690	     -7.01686616	     -6.10579438	     10.07695081
